<?xml version="1.0" encoding="utf-8"?>
<!-- Generator: Adobe Illustrator 26.0.3, SVG Export Plug-In . SVG Version: 6.00 Build 0)  -->
<svg version="1.1" xmlns="http://www.w3.org/2000/svg" xmlns:xlink="http://www.w3.org/1999/xlink" x="0px" y="0px"
	 viewBox="0 0 1488 1187" style="enable-background:new 0 0 1488 1187;" xml:space="preserve">
<style type="text/css">
	.st0{display:none;}
	.st1{display:inline;}
	.st2{fill-rule:evenodd;clip-rule:evenodd;fill-opacity:0;}
	.st3{fill:none;stroke:url(#SVGID_1_);stroke-width:1.1424;stroke-linecap:round;stroke-linejoin:round;stroke-miterlimit:10;}
</style>
<g id="Layer_1" class="st0">
	<g id="Homepage-R4" class="st1">
		<g id="b.com-evolution-desktop2_x5F_article1_x2B_HOVER" transform="translate(0.000000, -138.000000)">
			<g id="lines-pattern-white-copy-2" transform="translate(-192.000000, 0.000000)">
				
					<image style="overflow:visible;enable-background:new    ;" width="1900" height="1187" xlink:href="60F84015823C7353.png"  transform="matrix(1 0 0 1 0 138)">
				</image>
				<g>
					<rect id="rect-1" y="138" class="st2" width="1900" height="1187"/>
				</g>
			</g>
		</g>
	</g>
</g>
<g id="Layer_2">
	<linearGradient id="SVGID_1_" gradientUnits="userSpaceOnUse" x1="878.7606" y1="1127.6162" x2="704.0263" y2="136.649">
		<stop  offset="0" style="stop-color:#A93794;stop-opacity:0"/>
		<stop  offset="1" style="stop-color:#A93794"/>
	</linearGradient>
	<path class="st3" d="M2053,589.7c0,0-82.6,69.6-107.5,88.7c-24.9,19.1-49,36.9-78.7,51.6c-29.7,14.7-42.8,29.8-70.7,39.9
		c-27.8,10.1-50.1,17-72.8,29.6s-63.9,27.8-86.4,35.1c-22.5,7.3-41.6,13.4-69.5,27.7c-27.9,14.2-46.8,21.1-90.5,26
		c-43.6,5-78.9,15.6-108.3,26.6c-25.3,9.5-41.7,9.7-61.1,16.3c-19.3,6.6-58.1,13-86.7,9.4c-28.5-3.6-106.8-24.2-149.2-33
		c-42.5-8.8-111,12.4-181.8,42.5c-40.6,17.3-76.5,45.7-119.9,69.8c-39.5,21.9-61.5,16.9-142.2,64c-21.9,12.8-45.9,43.6-122,80.8
		c-69.8,34-42.6,17-85.3,36.7s-76.7,21.2-156.3,7.2s-112.5-29.1-230.4-24.1c-39.2,1.7-59.3,11.7-112.8,17.2
		c-48.5,5-123.7,21.9-171.3,30.3c-73.1,12.9-118.9,16.8-118.9,16.8 M1498.4,597.1c0,0-37.6,14.5-100.4-10.2
		c-62.8-24.8-95.4-34.4-126-28.1c-30.6,6.3-79.2,27.1-95.9,31.5c-16.7,4.4-37.6,12.9-50.2,18.1c-12.5,5.3-59.2,16.2-90.7,19
		c-31.5,2.8-87.7,14.2-106.3,20.9c-18.5,6.7-43.1,16.4-60,20.5s-49.3,26.2-80.4,53.9c-31,27.7-127.2,92-167.4,104.8
		c-44.1,14-154.3-20.1-201.5-36s-134.2-4.8-161.8,9.3c-27.6,14.2-51.1,22.1-62.4,23c-11.4,0.9-76.9,15.6-89.4,22.8
		c-12.5,7.1-36,13.2-47.6,14.9c-11.6,1.7-33.6,12.3-49.9,19.2C-7.8,887.5-55,905.3-71.4,910s-40.8,10.6-60.7,30
		s-87.5,84.7-138.8,105.7 M1736.8,586c0,0-45.4-32.5-77.1-40.1c-31.7-7.6-59.1,1.2-95,19.7c-35.9,18.4-117.6,55.8-150.3,65.9
		c-32.7,10.2-125.6,27.5-149.2,36.5s-45.1,12.8-72.9,13.6c-27.8,0.8-98.7,16.8-162.9,15.6c-64.2-1.3-109,0.3-159.7,51.8
		s-68.2,71.8-89.5,99.4c-21.3,27.6-55,47.3-94.7,91.7c-39.7,44.4-88.4,74.8-134,87c-45.6,12.2-139.2-36.2-190.7-54.3
		c-51.5-18.2-166.6-33.6-234-12.8S39.1,991.6-0.5,1036s-57.8,55.9-76.4,68.6s-63.4,31.4-86.4,38.1s-29.3,6.7-51.9,18.6
		c-9.3,4.9-44.5,18.3-44.5,18.3 M1270.8,303.4c0,0-30.4,23.8-41.3,32.9c-11,9.1-21.7,14.4-52.8,44.4 M761.2,634.1
		c0,0,18.1,1.8,27.6,0.8c9.5-1,22.2-2.6,40.4-9.8c19.8-7.8,42.6-26.2,53.8-35.5s26.6-22.9,38-28.3c11.4-5.4,46.9-18.6,64.3-23.6
		c17.5-5,26.8-7.2,44-7.1s53.3-2.8,72.8-4.8c19.5-1.9,36.1-2,62.9,4.2c26.7,6.2,35,9.5,79.4,9.9c44.4,0.5,68.6-12.1,93.5-17.2
		c24.9-5.1,46-0.7,87.9-4.3c41.9-3.6,81-20.4,133.6-48.4c52.6-28.1,83.3-48,93.5-53.5c10.3-5.5,24.4-11.7,36.3-14.6
		c11.8-2.9,30.1-10.1,44.8-16.5c14.7-6.4,26.9-9.9,26.9-9.9 M1636.8,426c-36.7,5.9-54.5-1.3-95.6,0.6c-45.8,2.2-69,19-113.1,33
		c-70.7,22.5-99.2,19.2-122,19.1s-42.6,1.4-88.3,12s-74.7,12.5-124.6,19.4c-49.9,6.9-66.6,4.2-122.8,26.8S868,590.9,836.7,610
		s-45.8,24.2-68.1,24.3c-22.3,0.2-44.2-8-115.8-34s-146.5-28-209.7-12.7c-63.2,15.3-98.6,48.2-137.4,65.1s-62.5,23.6-89.5,29.9
		c-27.1,6.4-65.9,21.7-80.6,28.1c-15.2,6.7-41.5,10.2-65.1,17.8c-36,11.6-33.8,20-72.1,38c-38.3,18-81.6,26.7-110.3,31.8
		s-43.2,14.6-52.4,19.8c-9.2,5.2-43,20.1-77.4,36.7s-51.8,37.6-51.8,37.6 M327.6,641.7c-8.9,1.4-31.9,4.9-46.8,3
		c-9.5-1.2-26.1-4.9-41.4-2.2s-39.9,6.2-101.6-2.8S7.3,628.3-14.5,634.1s-27.4,14.4-54.2,20.9s-92.3,12.9-118.4,13
		c-26.1,0.1-38.5,8.6-38.5,8.6 M918,561.4c-39.9-15.2-71.3-45.4-99.7-63.8c-28.4-18.4-54.9-34.7-90.3-49.3
		c-35.4-14.6-85.9-20.4-124.5-14.6s-42.2,19.2-74.4,40.8c-33.6,22.6-37.4,34.6-61.9,55.7c-24.5,21.1-37.7,27.2-68.5,59.7
		c-30.8,32.6-58.1,34.9-91.2,35.5c-33.1,0.6-37.4-0.3-90.9,7.6S93,621.8,64.8,623.2s-37.8-3.7-60-1.8c-37.8,3.2-44.2,18.4-71.2,24.1
		c-28.7,6-109.1,22.2-109.1,22.2 M905.9,568.1c-32.4-13.8-124.7-92.1-174.2-108.9c-49.5-16.8-113.7-27.7-162.7,0.5
		c-49,28.1-66.2,67.1-97.4,89.4s-54.2,46.3-54.2,46.3 M286,661c-23.9-2.9-61.4-1.7-103.6-4.1S74,643.5,27.2,641.6
		s-61.8,11.2-78.6,16c-16.8,4.8-25.7,3.7-39.4,6.1s-38.8,8.6-60,9.5s-52.7-0.7-63.8,2c-11.1,2.7-18.6,5.5-18.6,5.5 M242.8,675.8
		c-97.6-5.8-205.2-24.5-236.2-23.7s-40,9.7-57,14.6s-78.3,14-102.8,14.9s-33.9-2-53.1-1.3s-31.2,4.1-31.2,4.1 M933.5,553.5
		c-10.8-2.4-37.2-9.8-81.4-43.6c-49-37.5-64.2-40.3-113.1-63.8c-46.5-22.4-63.1-19.9-98.1-20.4c-35-0.5-59.9,1.4-76.7,13.1
		c-17.6,12.2-59.3,32.8-79.6,52.9c-29.3,29-46.5,37.4-63.3,53.4s-40.4,43.9-71.8,54.3c-31.4,10.3-68,7.3-97.9,14.5
		c-29.9,7.2-61.4,16.1-95.6,12.5S82,613.7,68.5,614.5s-18.7,1-55.8-0.2c-38.5-1.3-45.3,17-104.9,27.7c-23.6,4.2-88.2,25.8-88.2,25.8
		 M958.3,541.9c-35.4,1.1-60.5-11.4-92.5-33.5c-32-22.1-80.1-52.9-101.3-59.9c-20.4-6.8-62-25.3-100.6-27.7
		c-36.2-2.2-78.6,0.6-84.9,4.1c-29.4,16.3-49.3,22.7-70.9,34.4c-41.5,22.5-121.9,99.3-159.2,114.1s-44.1,10.2-82.8,23.1
		c-26.3,8.7-86.3,28.4-111.7,23.3c-48.7-9.7-73.8-14.6-126.7-13.9c-47.7,0.6-43.8,5.8-79.3,12.7c-36.2,7-48.2,16.7-81.9,27.3
		c-37,11.7-49.7,22-49.7,22 M-191.4,667.9c0,0,13.5-14,37.5-25c24-11,39-21.2,65.4-31.3s30.5-5.7,49.1-11.4s41.9-6.2,66.2-3.3
		s41.1-3.2,80.5,5.4c39.5,8.6,63.1,12.6,118.9-5.7s44-21.1,88.6-33.4s86.2-46.1,138.5-83.4S579,425,579,425 M995.9,527.4
		c-81.7,16.6-156.9-49.3-191.7-67.6c-34.8-18.2-76.1-30.1-107-36.6c-31-6.4-51.8-3.1-51.8-3.1 M659.9,419.3
		c-62.5-5-85.9,4.4-113.3,10.6c-27.4,6.1-41.1,5-75,23.6s-86,55.5-119.1,73.9c-33.1,18.5-37,12.7-72.2,28
		c-35.2,15.2-59.3,29.8-88.4,39.1c-29.1,9.3-64.8,1.8-86.7-3.2s-41.3-6.9-62.6-6.5c-21.3,0.4-43.3-5-62.5-5
		c-19.2-0.1-33.9,7-57.9,11.8c-24,4.8-29.7,13.2-62.4,29.3s-67.3,49-67.3,49 M673.4,419.8c0,0,25.4-2.9,85.8,13.6
		c60.3,16.5,117.5,68.7,183,79c65.5,10.3,88.7,4.9,158.4-74c29.7-33.6,69.2-51.7,69.2-51.7 M894.6,574.5
		c-25.1-12.6-67.2-46.8-108.6-75.6c-41.4-28.8-101.7-52.6-156.6-43c-55,9.6-91.9,48.4-115.5,75.3c-23.6,26.9-54.8,53.1-54.8,53.1
		 M883.2,581.2c-24.9-13.4-86.3-67.3-122.6-86.7c-36.3-19.3-71.5-32-111.6-28.8c-40.1,3.2-81.7,34-105.6,60.9
		c-23.9,27-49.8,52.7-49.8,52.7 M872.2,587.9c-20.6-10-59.4-49.2-88.8-66.8s-94.5-58.8-149.7-38C578.5,504.1,522.4,578,522.4,578
		 M863.7,593.2c-30.9-16.7-89.3-82.8-163.6-98.6c-54.9-11.7-96.3,24.1-107.6,36s-47.5,48-47.5,48 M856,598c-8-4.1-24-17.4-62.5-46.6
		c-38.5-29.3-90.4-47.3-130.1-39.2c-39.6,8.1-93.3,68.6-93.3,68.6 M847.8,603.1c-10.2-7-24.8-18.5-47.9-34.6
		c-23.1-16.1-63-45.3-109.7-42.7s-94.9,58.8-94.9,58.8 M840.8,607.5c0,0-4.3-2.3-16.9-11c-12.6-8.7-60.2-46.9-108.1-52.5
		c-47.9-5.6-98,45.6-98,45.6 M832.9,612.3c0,0-65.1-47.7-112.1-50.3c-40.6-2.2-79.7,34.5-79.7,34.5 M825.8,616.5
		c-26.1-11.1-65.8-41.1-102.5-36.4c-36.7,4.7-59.9,24.2-59.9,24.2 M817.5,621.1c-23.4-10-44.2-23.5-76.2-23.9S686,612.4,686,612.4
		 M811.2,624.3c-16.8-3.6-35.3-13.8-60-12.9c-24.7,1-41.6,9.3-41.6,9.3 M803.5,627.7c-41.5-9.7-72.3,0.1-72.3,0.1 M790.2,632
		c-17.7-2-41.9,0.2-41.9,0.2 M1004.5,524.7c0,0,48-23,91.5-76.6c23.4-28.8,65.8-57.4,65.8-57.4 M1165.4,388.8
		c-20.3,16.5-52.9,46-72.5,70.2s-59.8,58.9-59.8,58.9 M1666.1,243.1c0,0-45,27-129.2,20.3c-64.9-5.2-88.2-21.1-134.3-11.4
		c-64.4,13.5-96.6,55.5-130.6,75.6c-33.9,20-60.2,32.7-89.1,50c-28.9,17.3-60.5,56.3-80.6,80.6c-20.1,24.3-55.6,57.5-55.6,57.5
		 M1672.3,261.1c0,0-41.1,22.3-103.7,23.1c-62.6,0.8-121.9-21.9-159.1-12.9c-47.5,11.5-79.2,27-103.7,40.6
		c-24.5,13.6-63.8,32.9-84.9,44.3c-24.6,13.3-57.5,36.5-74.6,58.3c-17.2,21.7-67.2,79-90.3,100.2 M1236.3,348.1
		c-52.8,30.5-84.1,60.3-105.3,91.7c-18.8,28-68.1,74-68.1,74 M1677.8,278.1c-72.2,29.8-153.1,24.4-199.5,15.5s-73.4-4.2-117.1,8.8
		c-31.2,9.2-81.7,23-134.4,53.7c-52.7,30.7-81,70.4-99.8,97.6s-55.7,59.3-55.7,59.3 M1683.9,294.1c-45.2,17.9-97.4,26.3-166.5,16.8
		c-48.7-6.7-124.6-6.1-167.6,8.5c-43,14.5-76.6,17.8-118.1,40.6c-57.3,31.4-76.5,62.1-101.2,95.9c-24.7,33.8-53.6,56.3-53.6,56.3
		 M1689.7,309.7c-23.8,10.4-92.3,27.8-147.1,15.1c-23.8-5.5-43.8-0.1-97.8-1.1c-70.6-1.4-89.4,11.9-117.7,18.6
		c-28.3,6.7-70.9,16.8-109.2,37.3c-38.4,20.5-50.8,42.6-82.7,78.1s-54.6,54-54.6,54 M1702.3,336.9c0,0-14.2,2.3-26.7,6.9
		c-12.5,4.5-52.3,19.4-91.2,10.7c-38.9-8.7-48.1-4-69.2-8.1c-21.2-4-37-4.5-56,0.3c-19,4.8-29.8,1.2-64.2,8.7
		c-34.4,7.4-91,23.9-141.2,42.4c-50.3,18.5-79.4,42.2-98.8,57.4c-19.3,15.1-72.6,56.4-72.6,56.4 M1696.2,323.5
		c-55.1,20.3-111.1,21.9-141.3,14.4c-30.2-7.4-45.3-1.7-70-3.4c-24.7-1.7-29,4.4-65.3,4.8s-55.4,7.3-86.6,17.3
		c-31.2,10-62.1,16-97.8,32.1c-38.6,17.4-57.4,33.7-81.8,58.7s-63.5,58.4-63.5,58.4 M1708.7,347.2c0,0-30.7,12.1-56.1,17.7
		c-25.4,5.6-47.9,6.6-65.2,3.1c-17.3-3.5-31.4-7.1-39.7-6.5s-24.7-1.7-45.8-5.7c-21.2-4-46.3,2.3-81.7,9.1
		c-35.3,6.9-106.7,24.5-153.6,40.6c-46.9,16-97.1,48-114.3,60.2c-17.2,12.2-65,42-65,42 M1714.2,356.7
		c-59.4,24.7-109.5,26-128.5,21.6c-11.9-2.7-24.2-5.7-36-5.9c-11.8-0.1-23.3-0.3-47.7-6.4c-24.4-6-62.1,6.8-111.1,19.6
		c-49,12.8-81.6,18.8-116.3,29.1c-34.7,10.3-87.3,38.5-106.7,50.7c-19.5,12.2-72.8,44.3-72.8,44.3 M1721.3,363.5
		c0,0-18.8,12.8-67.1,20c-48.3,7.2-59.6,4-77.2,1.5c-17.6-2.5-32.7-2.4-44.4-2.9c-11.7-0.5-22.3-4.9-39.9-7.3
		c-17.6-2.5-42.2,6.3-72.6,16.5c-30.4,10.2-49.2,14.5-79.4,22.2c-30.3,7.7-42,4.2-82.7,16.5c-40.7,12.3-151.6,78.4-151.6,78.4
		 M1727.4,370.5c-38.3,16.8-66,21.6-95,23.6s-100.8-3.5-111.9-6c-31.4-7-61.1-3-94.3,11.8c-22.7,10.1-52.9,20.7-89.9,27
		s-53.1,4.5-83.8,14.3c-30.7,9.9-137.4,66.1-137.4,66.1 M1734.5,376.4c0,0-24.6,15.4-54.5,17.8c-25.6,2.1-23.9,6-60,8
		c-36.1,2-81.4-10-124.4-10c-43,0-56.8,17.1-77.7,23.9c-21,6.8-53,18.8-87.6,22.5s-73.7,7.4-93.2,15.5s-49.3,26.2-67.3,32
		s-47.4,20.3-47.4,20.3 M1699.8,398.9c0,0-25.1,3-50.4,8.2c-26,5.4-53,3.6-88.7-2.1c-36.4-5.7-69.8-7.4-88.9-1.4
		s-48.8,25.3-78.2,33.3c-29.4,8.1-58.3,10.9-94.5,13.9c-36.2,3-59.7,7.4-69.5,12.5s-47.1,23.9-68.9,30.3s-34.3,12-34.3,12
		 M791.9,634.6c19.5-4.4,33.9-10.5,51.2-21.5s37.4-30.2,37.4-30.2 M786.6,635.1c37.7-7.6,74.3-40.2,74.3-40.2 M1660,413
		c0,0-31.9,4.9-65,3.2c-33.1-1.7-64.3-10.5-98.7-6.5c-26.5,3.1-44,15.7-74.2,29.8c-30.2,14-80.7,20.7-120.3,20.8
		c-39.6,0.1-55.5,3.7-78.4,14.1c-22.9,10.4-31.8,14.4-49.1,18.8c-17.3,4.4-38,9.6-44.5,12.3 M1646.7,420.1c0,0-23.9,4.1-48.9,2.7
		c-25-1.4-48.8-6.9-76.5-5.9c-37.8,1.3-58.6,16.6-86.2,28.9s-37.6,16.8-85.5,22s-68.7-2.8-102.4,6c-33.8,8.7-31.8,13.1-59.1,19.7
		c-27.4,6.6-37,6.2-53.1,11.4 M1178,498.7c17.7-2.4,113.7-8.9,137.3-10.3c23.6-1.4,54-3.7,79.4-12.5c25.3-8.8,36.6-6.3,58.9-13.9
		s35.7-9.2,60.7-17c25-7.7,46.4-10.3,72.4-11c26-0.7,43.3-3.9,43.3-3.9 M1141.7,504c13.3-0.6,69.7-1.4,117.3-2.6
		c55.6-1.5,108.5-12.5,120.7-15.2s43.9-11.7,54.7-11.6s25.5-3.6,43-9.3c17.5-5.7,59.7-12.8,76.1-17.3c16.5-4.5,25.6-7.9,39.5-9.8
		s31-4.5,31-4.5 M1011.9,522.5c19.5-4.2,34.5-2.7,66.6-5.7c32.2-2.9,35-6,64.6-8.6c29.7-2.5,60.2,10.3,113.9,5.3
		c53.7-5,79.2-11.5,98.2-15.6s36.4-4,52.6-8.6s21.6-5.8,43.6-7.6c22-1.8,52.3-14.7,90.5-23.6c38.2-8.9,34.5-11.7,50-14.9
		c15.5-3.2,25.4-8.6,25.4-8.6 M934.5,553c0,0,36.4-14.9,59.4-21.8s57-7.6,83.4-9.7s50.6-6.5,69.7-6.2s43.1,11.2,79,12.1
		c35.9,0.8,63.8-4.4,85.9-10.2c22.1-5.7,47.8-11.8,59.4-11.4s26.2-0.6,45.7-4.3c19.4-3.8,34.3-6.6,47.7-8.4s13.6-4.2,54.8-17.4
		c41.3-13.2,101.7-40.2,101.7-40.2 M1660.4,226.2c0,0-42.3,15.7-71.8,20.1c-29.6,4.4-56.8-5.2-73.1-6.5c-16.3-1.3-62.3-10.3-80-11.3
		c-17.7-1-54.9,10.1-75.7,18.6c-20.8,8.5-60.4,49.8-76.2,64.8s-32.9,27.7-32.9,27.7 M1654.2,209c0,0-44.2,18.2-74.2,20.7
		s-44-3.8-57-6.1s-38.1-3-55.1-4.3s-23.9-4.2-37.9-3.3c-14,0.9-56.4,10.7-74.7,20.6c-18.3,9.9-46.4,39.9-55,49.5
		c-8.6,9.6-40.5,46.3-72.3,66.2 M1648.6,193.2c0,0-39.2,18-77.2,22.7s-46.5-5.7-79.7-4.1c-33.2,1.6-42.5-3.7-64.8-1
		c-22.3,2.7-68.7,11.7-95.5,36.6c-26.8,24.9-55.3,60.5-67.7,73.2c-12.4,12.7-44.3,35-61.5,45.8 M1251.2,318.9c0,0-22.4,11.3-44,34.5
		 M1096,443.6c0,0-35.6,33.1-53.4,47.9c-17.8,14.8-67.9,20.9-104.8,8.5c-36.9-12.5-82.2-33.1-115-46.9
		c-31.9-13.4-55.3-24.5-98.9-31.8c-43.6-7.4-57.3-2.1-86.7-3.2c-29.4-1.1-44.3-3-73.8,1.7c-29.5,4.7-63.8,6.2-82,16.1
		s-72.6,37.8-98.7,55.3c-26.1,17.5-62.2,33.3-91.8,40.7c-29.6,7.4-31,13-63.2,30.3c-32.2,17.3-46,32.1-102.7,20.4
		S-13.9,563.3-41.6,566s-124.8,48.4-168.5,89.3 M1100.7,438.3c0,0-30.6,25.8-48.3,40.3c-17.7,14.5-50,25.1-93.6,17.9
		c-43.6-7.1-83.3-32.4-113.5-44c-30.2-11.6-85.9-28.7-126.8-35.8c-40.8-7-91.1-1.8-121.7-2.5c-28-0.6-51.2-1.5-85,4
		s-43.7,16.1-75.7,32c-32,16-39.9,14.4-72.8,33.6c-33,19.2-48.5,25.2-71.7,31.1c-23.2,5.9-38.8,11.4-70.2,32.2
		s-53.8,31.7-100.2,22.3c-46.4-9.4-65.4-15-92.6-17.2c-27.2-2.1-70.1-8.7-96.1,8.3c-26,17-40.4,20.3-55.6,25.7
		c-15.1,5.4-29.3,15.8-46.2,29.1s-42.4,27.5-42.4,27.5 M558.8,414c0,0-41-4.6-60.3,1.3c-19.2,5.9-33.8,14.6-60.5,26.8
		c-24.2,11.1-38.2,5.8-78.3,25.7s-31,24.6-74.2,33.7c-40.3,8.5-47.7,16.5-78.9,34.6s-44.7,28.3-100.7,15.2
		C50,538.2,3.7,529-26.1,533.5c-29.8,4.5-34.6,11.9-62.2,28c-24,14-27.5,5.9-60.7,31.4c-34.4,26.4-40.5,24.3-62,40.2 M463.2,430.1
		c0,0-20,8.5-38,9.7c-18,1.2-29.8,0.3-61,10.3c-31.2,10-31.5,23.3-63.5,33.1s-41.5,4.6-88.7,30.7c-47.2,26.1-65.2,25-105.5,19.1
		s-81.8-19.8-117.8-16.5c-36,3.2-56.7,23-76.9,34.1s-35.7,20.4-56.4,35.6c-20.7,15.2-43.3,25-53.1,29.8c-4,2-12.7,8.3-12.7,8.3
		 M470.8,426.5c0,0-23.8,6.8-45.6,6.3c-21.8-0.5-51.6,3-79.2,12.5c-27.6,9.4-31.4,15.3-69.1,26.5s-83.9,38.3-136.1,40.7
		c-52.2,2.4-114.2-17.9-152.9-7.8c-38.7,10.1-84.2,42.2-99.8,54.8c-15.6,12.6-33.9,30.9-61.7,40.6s-36.3,15.5-36.3,15.5
		 M466.4,427.6c0,0-16.1,1.6-39.6,1.3c-23.5-0.3-32.1-0.7-58.5,4.4c-26.4,5.2-40.8,3.2-80.2,16.4s-66.2,30.3-133.6,37.8
		c-46.1,5.2-102.6-8.3-145.3-0.2c-41.2,7.8-98.2,48.2-122.1,68.7c-23.4,20-34.7,30.3-63.2,39.5c-28.4,9.1-33.3,10.8-33.3,10.8
		 M440.8,428.9c0,0-38-6.8-54.5-4.4c-16.5,2.4-38.6,5.5-51.8,4.6s-37,1.5-63.9,10s-28.9,12.3-71,22c-42.1,9.7-69.8,8.3-89.1,6.6
		c-19.3-1.7-67.2-4.5-99.8,6.9s-77.9,37.1-118.4,70.9c-34.3,28.6-43.9,34.3-60,39.4c-16.1,5-40.8,13.3-40.8,13.3 M462.9,427.9
		c0,0-25.9-3-48-7.5c-22-4.5-32.7-5.3-48.8-3.9c-16.1,1.4-37.2,1.5-48.5,1.3s-33.4,2.2-71.3,13.4S163.8,450.6,137,452
		c-26.8,1.5-74.5-3.6-99.8,0.9c-25.3,4.5-47.8,14.2-85.4,38.9c-25.2,16.6-58.9,50.3-83.5,66.5s-62.6,23.8-76.7,30.4 M475.7,424.2
		c0,0-13.2,0.5-42.3-6.6c-29.1-7.1-46.4-12-76.6-12.2c-30.1-0.2-54.1,1.5-78.6,5.6c-24.5,4.1-57.4,16-79.5,18.1
		c-22,2.2-28.5,1.7-45.5,5.8c-17,4.1-49.9,3.7-69.9,3.3s-60.3-1.2-85.5,13c-25.5,14.4-39.3,23.5-60.3,42.6
		c-24.4,22.2-54.2,53.7-79.5,62.3c-20.2,6.9-51.2,14.5-67.2,21.8 M488,419c0,0-15.9-0.9-30.7-4.4c-14.7-3.5-67.3-19.2-96.9-20.7
		c-29.5-1.5-62.2,7.8-79.5,7.6c-17.4-0.1-44.4,6.9-54.9,10.3c-10.6,3.5-25.6,6.2-36.4,5.9c-10.8-0.3-30.4,2.4-40.4,4.3
		c-10,2-42,5.2-67.3,4.5s-53.9-3.3-85.4,9.7c-40.2,16.7-99.2,94.9-117.2,104.3s-30,11.8-46.7,14.3c-16.7,2.5-42.7,11-42.7,11
		 M517.7,412.5c0,0-49.3-2.7-82-12.8s-56.9-15.6-78.7-15.3c-21.8,0.3-38.3,6.5-65.1,9.6c-26.8,3.1-27.2,0.4-47.8,3.1
		s-21.7,5.5-41.5,8.5s-37.7,1.6-60.7,5.4s-53.8,6.4-69.2,6.1s-40.9-6-60.8-0.8C-8,421.6-37.5,443-52.7,459.1
		c-13.7,14.3-43,58.8-66.8,73.4c-25.8,15.8-68.7,14.8-91.2,22.5 M596.9,414.3c0,0,54.2-6.2,81-5.6c26.8,0.6,58.9,8.8,75.9,13.1
		s33.8,1.2,58.9,9.7s99.7,41.9,116.6,48.3c16.8,6.4,39.8,10.2,60.2,10.5s39.8-3.3,53.2-10.8s45.3-30.3,45.3-30.3 M684.5,409
		c-27.5-6.3-66,3-66,3 M731.3,416.4c0,0,23.5,4.2,32.4,3.4c8.9-0.9,31.7-3,57.5,6.9s73.5,34.4,110.2,44.9
		c36.7,10.5,55.7,11.6,74.7,9.9c19-1.6,55.4-16.1,75.7-28.1 M736,417.1c20,1.5,32.3-6.8,51.7-4.7c21.3,2.3,48.9,10,63.1,16.8
		c14.2,6.8,36.2,17.9,60,25.8c23.8,7.9,61.6,18.1,72.7,18.6c11.1,0.5,23.9-2.1,37.3-5.9c13.5-3.7,24.9-3.5,36.9-6.9
		c12-3.4,27.5-9.9,27.5-9.9 M722.4,414.5c23.9-1.9,42.7-9.1,62.4-7.7c19.7,1.4,45.1,6.4,77,19.6c31.9,13.2,82,31.6,104.5,34.4
		c22.5,2.7,31,1.4,41.4-1.2c10.4-2.5,17.9-2.5,24.8-2.8c7-0.3,24.3-0.2,35.8-3.9s28.6-11.4,28.6-11.4 M708.5,411.8
		c22.1-0.1,55.7-13.7,92-8.8c36.3,4.9,75.1,18.5,98.1,25.7c22.9,7.2,28.3,14.1,57.3,18.3c29,4.1,26.8,1.7,53.1-0.8
		c26.3-2.5,29.5,4.9,54.9-0.3c25.4-5.2,43.4-14.5,43.4-14.5 M694.6,409.9c16.2,0,25.7-5.1,49.6-9.7s45.5-7.2,91.5,0.4
		c42,6.9,77.6,21.1,97.6,26.5c36,9.7,58.7,4.2,75,5.5c22.3,1.8,43.9,7.4,67.5,2.1s40.1-11.6,40.1-11.6 M1120.7,418.8
		c0,0-26.3,6.6-47,8c-20.6,1.4-45.6-5.8-73.6-9.3s-21.4,1.1-54.3-4.9c-32.9-5.9-41.2-13.9-70.1-17.4c-28.9-3.5-71.2-13.6-116.4-5.5
		c-28.6,5.1-39,10.1-55.3,12.5c-15.6,2.3-27.4,5.4-27.4,5.4 M1124.3,415.9c0,0-22.4,3.8-55,4.5c-21.5,0.4-41.7-8.1-71.2-15.6
		c-18-4.5-24.5-3.2-55.3-9.9c-30.8-6.7-34.2-10.7-56.6-12.7c-20.5-1.9-19.6,0.2-46.7-3.7c-27.2-3.9-43.2-2.3-64,0.2
		c-20.8,2.5-51,13.5-75.3,17.6c-24.3,4.1-39.6,10.5-39.6,10.5 M1130.4,411c0,0-27.6,6.6-62.3,4.2c-32.7-2.3-55.1-11.9-69.4-17.6
		c-15.8-6.2-31.6-10.1-48.9-13.9c-17.3-3.8-40.3-14.6-66.8-15c-14.9-0.3-26.2,2-52.3-0.5c-26.1-2.6-42.9-0.3-63.1,5
		s-42.3,10.7-60.1,14.3c-17.8,3.6-40.1,10.2-64.8,20.5 M1137.9,405.7c0,0-14.4,5-37.4,5.3s-47.3-3.1-64.1-7
		c-16.9-3.9-28.9-5.3-45.1-13.9s-26.5-11.1-42.2-16c-15.7-4.9-46.8-18.3-72.4-19.4c-25.6-1.1-19.2,1.7-43.6,2.4
		c-24.4,0.7-41.3,2.7-58.6,7.6c-17.3,4.9-31.4,8.7-52.9,12.1c-21.5,3.4-43,9.7-68.9,18.5s-51.2,16.5-93.9,16.8
		c-42.8,0.3-120.1-19.9-145.1-26.8s-53.9-13.8-87.1-4s-57.3,10.7-84,9.9s-62.3,3.5-79.7,6.1c-18,2.7-60.3,12.6-90.3,12.1
		s-44.7-6.5-64-0.9s-37.7,17.3-64.4,45.7c-26.6,28.3-41.5,60.8-80.7,77.2c-24.4,10.2-44.7,5.6-75.3,11.9 M340.1,378.1
		c28.4-15.3,70.5,0.6,92.3,7.2c21.9,6.6,89.2,22.1,117.8,21.4c28.5-0.8,79.3-15.1,100.9-21.7c21.6-6.6,51.1-14.7,67.5-15.7
		c16.4-1,44.1-7.3,67.3-17.5s53.7-12.8,87.2-9c33.5,3.7,70.4,19.9,101.8,34.6c31.4,14.7,40,14.7,49.6,16.7c9.6,2,41.5,8.4,50.7,10
		c9.3,1.6,31.6,6.2,59.9-4c28.3-10.3,45.7-23.4,45.7-23.4 M323.2,382.3c0,0-32.9,5.3-60.9,4.6s-60.9-9.4-97.9-1.6
		c-37.1,7.8-58.1,16.8-92.7,18.1c-34.6,1.3-46.4-9.1-78.2,3.7s-57.3,45.5-71.6,62.9c-14.3,17.4-30.8,41.2-59.8,51.2
		c-29,10-75.8,9-75.8,9 M363.3,371.8c14.2-2.7,34-2.7,60,6c26,8.7,86,28.4,114,26.6c28.1-1.8,52.6-14.3,68.3-20
		c15.7-5.6,69.9-15.1,87-19.2c14-3.4,19.7-3.5,38.1-5.6c36.8-4.1,54.5-28,83.4-32.1c41.2-5.8,103.5,17.1,135.8,32.7
		c32.3,15.7,51.4,22.2,77.7,26.3s39.3,15.5,80.7,12.1c41.3-3.4,79-28.1,79-28.1 M1189.7,368.5c0,0-27.9,10.5-60.6,17.7
		c-32.7,7.2-48.2,11.7-75.9,0.8c-27.7-10.8-50.5-12.8-79.9-24.9c-29.4-12-99.7-46.7-145.4-47.7c-45.6-1-60.7,32.5-99.8,39.7
		c-38.2,7-97.3,10.7-126.3,23.3c-23.7,10.3-40.9,27-80.4,23.8c-39.5-3.2-70.8-19.3-95.7-26.3s-35-4.3-35-4.3 M1194.5,364.2
		c0,0-12.1,5-28.1,7.6c-16,2.5-30.4,2.4-54.4,8.6c-24,6.3-37.2,9.2-63.1-0.9c-25.9-10.1-64.2-24.1-86.2-30.4s-69.1-31.3-79.4-35
		s-61.2-17.5-93.9-4.6c-32.7,12.9-42.2,34.6-66.7,39.6c-24.5,5-67.4,11.5-83.6,11.6s-33.1,7.3-50.4,17.9
		c-17.3,10.6-37.4,19.4-55.1,20.2c-17.7,0.8-26.6-0.6-43.5-5.6c-16.9-5-54-19.2-69.8-19.6 M1201.4,358.2c0,0-17.6,6.3-36.5,7.5
		c-18.9,1.2-36.7-0.9-55.4,4.8c-18.7,5.7-33.8,10-62.9,1.8c-29.1-8.2-57.9-24.5-79.6-30.2s-57-25.6-70.5-33.1
		c-13.4-7.5-53.5-21.4-93.7-16c-40.2,5.4-57.3,37.1-79.5,47.1c-22.2,9.9-60.7,15.9-74.8,16.8c-14.1,0.9-38.5,2.9-63.4,18.6
		c-24.9,15.6-48,26.7-100,16.3 M1531.1,209.4c20.3-3.6,105.9-44.1,105.9-44.1 M1530.1,209.4c21.9-9.6,100.8-63.1,100.8-63.1
		 M1528.1,209.5c27.3-17.1,97.1-83,97.1-83 M1524,209.5c33.9-26.8,95.5-101.2,95.5-101.2 M1518.5,209.4
		c41.8-41.2,95.1-116.6,95.1-116.6 M1512.2,209.2c45.8-53,96.1-125.2,96.1-125.2 M1505.8,208.9c42.5-52.7,96.6-130.3,96.6-130.3
		 M1498.5,208.7c41.7-51.4,98.1-134.2,98.1-134.2 M1489.3,208.5c25.5-26.5,101.5-139.2,101.5-139.2 M1476.9,208.6
		c26.6-21.2,108.2-144.3,108.2-144.3 M1461.3,208.8c32.3-20.2,118.2-146.6,118.2-146.6 M1446.8,208.1
		c43-25.4,126.9-144.7,126.9-144.7 M1435.2,208.5c25.8-17.6,68.5-57.7,78.9-73.3c10.4-15.6,53.7-69.2,53.7-69.2 M1426.3,209.3
		c20.9-15,84.1-73.2,97.3-93.3s38.8-46.6,38.8-46.6 M1414.8,211.2c1.8-1.7,60.6-54.1,78.3-71.5c20.6-20.2,64.1-71.8,64.1-71.8
		 M1398.9,214.5c35.7-37.8,85.1-81.2,99.6-93.9s52.6-57.4,52.6-57.4 M1546.2,60.5c0,0-30.5,31.5-53.3,50.5s-50.8,43.8-73.3,68.6
		c-9.4,10.4-31,30.6-38.8,39.8 M1540.7,57.9c0,0-93.4,64.9-178.9,167.6 M1535.4,51.2c0,0-27.8,14.9-51.8,35.2
		c-24.1,20.2-55.4,48.7-69.3,61.6c-13.9,12.9-44.6,51.9-54.4,64.6s-22.9,25.2-22.9,25.2 M446.3,379c24.8-0.5,41.2,3.3,65.8,4.9
		c24.5,1.5,52.8-7.3,87.5-30.4c26-17.3,70.3-21.5,92.9-37.2c33-22.9,57.1-44,100-50.9s115,17.6,149.6,33.3
		c29.7,13.5,44.5,26.3,72.9,33.4c32.6,8.1,53.2,6.7,70.9,2.5s33-2.1,60.3,3.1c27.3,5.1,57.8-4.3,101-29.2
		c43.3-24.9,55.3-44.3,67.1-57.1c11.8-12.8,42.5-47.7,53.6-65.6c12.4-20,32.8-46.8,56.7-66.1s36.8-35.3,52.7-47.7
		c34.5-26.7,53.1-31.8,53.1-31.8 M1275.9,297.9c0,0-15.4,8.2-31.6,20.9c-16.1,12.6-44.1,25.9-70,30.9c-25.9,5-39.2-6.7-68.4-3.8
		c-29.2,2.8-25,12.2-65.6,5.7c-34.2-5.4-69.7-28.5-98.3-41.7c-28.6-13.2-89.7-41.3-145.1-35.3c-47.8,5.1-59.3,34.8-109,57.8
		c-32.7,15.1-67.9,13.2-101,34.9c-12,7.9-41.5,24.2-72.8,21.1c-31.4-3.1-49.9-8.5-64.6-8.4 M1213.1,347.4c0,0-23,10.8-51.2,12.4
		c-28.3,1.6-42.8-7.1-68.5,2.9c-25.7,10-67.7-2.8-84.5-10.4C992,344.6,916.9,310,900.5,302c-16.4-8-73.3-29.9-118.1-14.3
		c-44.8,15.6-40.8,34.3-86,52.5c-38.8,15.7-72.3,9-103.4,27.5c-21.6,12.8-42.7,26.3-78.4,24c-35.7-2.3-57.3-9.3-57.3-9.3
		 M282.5,386.5c0,0-46-7-68.1-11.9s-42.5-5.7-69.7,4.2s-51.2,19.1-73.9,19.9c-22.7,0.8-54.9-10.3-93,10.1
		c-22,11.8-48.2,40.8-77.4,72.1s-53.3,34.1-115.6,34.7 M296.8,385.4c0,0-17.1-1.3-37.8-7.3c-20.6-6-74.9-18.3-98.1-13.3
		c-26.5,5.7-48.3,18.7-70.1,25.2s-70.9-6-109.8,13.4s-78.4,63.8-104,79.8c-32.3,20-96.1,15.8-96.1,15.8 M299.2,385.2
		c0,0-16.8-3-31.6-8.8c-14.9-5.9-60.1-15.8-86.9-17.3s-51.7,6.6-76.8,16.1s-44.5,8.8-62.7,10.7c-18.2,1.9-52.2,8.7-80.9,27.8
		s-46,24.9-69.7,42.3c-27.4,20.2-72.3,23.3-114.6,23.8 M169,359c0,0-16.6-2.6-46.1,2.1c-29.5,4.7-97.7,16.2-150.1,42.6
		s-86.2,35.8-106.7,43.8c-20.5,8-57.7,10.5-71.9,10.7c-9.7,0.1-24,1.8-24,1.8 M-233.6,441c0,0,15.5-1.8,56.6-4
		c41.1-2.2,88.8-17,134.4-32.3C3,389.4,25.2,374.1,69.2,362.7s73.1-3.8,73.1-3.8 M146.7,358.6c0,0-38.4-11.4-72.8-3.5
		c-34.5,7.9-56.9,21-89.4,33.1s-87.8,27.3-114.4,31.7c-26.6,4.4-42.3,0-66.2,2.3s-39.5,4.6-39.5,4.6 M160.8,358.4
		c0,0-51.4-15.2-89.2-7.8c-37.8,7.4-76.9,29.1-120.7,41.7c-43.8,12.6-77.4,24-115.7,21.1c-30.9-2.4-51.7,4.6-71.1,4.5 M300.7,385.1
		c0,0-6-2.5-13.1-3.7c-7.3-1.3-17.7-6-39.1-12.6s-34.5-5.4-34.5-5.4 M303.1,384.8c0,0-60.5-20.2-75.7-23
		c-15.2-2.8-36.3-1.8-36.3-1.8 M309.3,384.1c0,0-37.1-10.6-59.3-20.4c-22.2-9.8-43.9-11.6-58.4-11.3c-14.5,0.3-51.4-4.6-65.7-6.9
		c-14.4-2.3-38.1-1.9-54.1,2.1s-78.9,25.2-92.9,30.6c-14,5.4-31.1,12.6-52.4,16.4s-44.8,14.2-64.7,15.1s-52.8-0.9-71,1.5
		c-17.2,2.3-26.1,1.8-26.1,1.8 M-235.2,409.2c0,0,58.4-2.7,85.4-1.3c27.1,1.5,44.5-8.9,63.4-13.5s43.2-7.9,43.2-7.9 M318.6,382.9
		c0,0-26.4-7.3-60.9-23.3c-34.5-15.9-68-16.2-87.9-17.4c-19.9-1.2-56.5-5.8-81.7,2.7 M335.5,379c0,0-30.6-6.1-54.7-17.6
		s-47.3-21-77.9-25.4s-60.9-4.8-94.7,4.9 M454.3,379c14.8-1.8,29-2.6,63.9-1.3c34.9,1.3,63.3-23.6,89.4-40.3
		c26.1-16.8,60.5-20.9,80.7-35c20.2-14.1,59-44.4,100.2-49c41.3-4.5,116.8,11.3,163.7,36.3c46.9,25,65.9,28.4,94.7,30.9
		c24.2,2.1,46.8-7.4,62.9-2.5s56.2,12.8,106.2-3.8c50-16.6,105.1-73,122-100.1s60.2-88.8,83.3-108.6c23.1-19.8,31.6-33.1,56.7-51.6
		s46.6-24.5,46.6-24.5 M434.8,375.9c19.4-1,31.2-4,57.6-4.2c26.4-0.2,45.3-2,73.7-18.8c28.3-16.8,31.8-30.1,73.2-44.4
		s56.6-36.6,112.1-59.6s125.1-1.4,142.1,3.4s53.4,15.7,81.6,31.3s67.8,20.9,91.9,17.6c24.1-3.3,48,2.8,65.3,6.3
		c18.8,3.8,79.3,7.7,127.7-22c51.1-31.3,92.4-102.9,114.5-136.1s64.8-79,93.3-101.1s52-27,52-27 M412.4,371.8
		c22.1-3.4,54.1-3.3,88.7-8.7c34.6-5.4,62.5-15.6,81.5-34.7s64.2-41.5,94.2-57.5c30-16,53.2-35.3,104.3-44.5
		c51.1-9.1,88,7.3,105.6,11s52.5,9.2,81.7,24.5s62.8,23.6,87.6,21.4c24.9-2.3,71.2,11.1,94.6,14.2c23.4,3,72.3,1.4,104.7-16.2
		c39.9-21.6,82.9-82.6,95.5-103.6s40.1-61.5,79.6-105.5c39.4-43.9,84.5-60.3,84.5-60.3 M113.2,339.5c0,0,22.1-13.5,69.6-13.8
		c47.5-0.3,90.7,22.9,128.2,34.5s57.4,9.8,76.5,5.4c19.1-4.4,29.5-5.4,55.1-6.1c25.6-0.7,88.5-11,114.8-27.1
		c34.3-21,44.6-38,75.3-56.1c30.7-18.2,67.8-32.9,80-40.1c12.2-7.2,42.7-22.1,80.5-25.7c37.7-3.7,78,14.7,105,18.9
		c22.2,3.5,50.2,7.8,80.1,22c29.8,14.2,51.1,15.8,64.3,16.6c13.1,0.8,43.8,4.8,61.4,11.8c17.6,6.9,42.2,9.5,57.6,11.5
		c15.4,2,65.4-1.6,91-15.1c37.2-19.5,77.5-69.6,90.9-93.5c13.4-23.9,51.6-72.8,81.1-111.6c29.5-38.8,85.6-66.1,85.6-66.1
		 M138.1,330.6c0,0,22.7-9.1,42.6-12.6c26.8-4.7,70.3,11.6,108.9,22.9c39.4,11.5,75.4,15.1,89.3,12c13.9-3.1,18.9-4.3,40.4-6
		c21.5-1.7,23.6,2.8,47.2-0.5c23.6-3.2,48-8.6,82.9-26.1c34.9-17.4,28.8-23.9,60.1-46.2s51.6-30.7,80.3-41.9
		c28.7-11.2,47.7-22,66.4-27.1c35.1-9.4,60.1-7.1,84.2,1s50,14.3,69.9,16.2c19.9,1.9,27.8-0.5,54.4,11.5
		c26.6,12,50.3,19.4,70.2,22.4c19.9,2.9,44.4,10.9,62.8,18.7s51.3,11.2,66.2,12.1c14.9,0.9,70.9-7.7,102.7-26.4
		c31.8-18.7,64.1-63.6,76.8-85.1c12.7-21.5,58.7-89.7,93.4-125.5s67.9-48.6,67.9-48.6 M1106.7,278c0,0,24.3,2.7,44.3,3.9
		s82.4-10.5,108-23.9c40-21,78.3-83.5,87-98.3c8.8-14.8,52-77.4,85.1-110.5s68.7-49.5,68.7-49.5 M1089.7,271.6
		c20.2,7.3,47,5,57.3,5.2c10.3,0.3,50.5-1.5,92-17.1c41.6-15.6,67.4-49,85.8-79.8c18.4-30.9,59-81.5,86.3-116.6s83.7-65.6,83.7-65.6
		 M145.9,327.7c17.9-12.4,33.8-17.9,51.5-19c17.7-1,63.7,9,89.4,18.2c36.5,13.1,73.9,13,92.3,10.8s37.7-3.7,61.6-3.7
		c23.9-0.1,57.4-4.7,76.6-17.1c19.2-12.4,29.1-10.3,48.1-26.6c19-16.3,48.5-42.4,80.4-56.6c31.9-14.2,65.7-21.7,92.1-31
		c26.4-9.4,41.4-14.3,68.6-10.9c27.2,3.4,65.9,19.2,93.9,19.6c31.6,0.5,46.3,6.2,58.8,11.4c12.5,5.2,36.1,17.4,50.4,20.9
		c30.1,7.4,58.4,17.1,68,21.8c31.7,15.6,64.5,3.8,99.5,1.3c35-2.5,43.9-3.7,75.8-22.4c31.8-18.7,43.5-35.4,60.1-57.2
		s43.7-72.4,83-113s56.4-49.2,56.4-49.2 M1065.6,260.5c0,0-16.4-10-32.4-13.3c-16-3.3-59.6-22.9-74.8-32
		c-15.1-9-42.7-14.8-63.8-16.4s-66-10.2-83.5-13.4c-17.5-3.2-49.8,0.7-71.5,8.1c-28.1,9.5-72.1,11-101.5,26.3
		c-29.4,15.3-40.7,23.1-63.5,40.3c-22.7,17.2-30.4,21.6-42.1,26.6s-22.8,14-46.7,23c-24,9-35.1,11.3-59.3,11.1
		c-24.2-0.1-45.6,7.1-84.8,4.6s-106.8-20.2-122.3-23.4c-15.5-3.2-36.9,0.8-52.7,13.8 M1033.2,247.2c0,0-20.4-7.3-40.1-19.7
		c-19.7-12.4-57.7-29.4-89.3-38.6c-10.7-3.1-33.4-5.1-66.7-12.2c-32.2-6.9-49.4-0.2-75.5,2.9s-23.2,8.1-57.5,11.4
		c-34.3,3.3-42.6,2.1-74.2,14.5s-69.9,40.4-91.6,52.6c-21.7,12.2-37.9,23.4-59.9,35.4s-53.6,18.5-87,20.3s-59.7,4.4-87-0.1
		s-86.6-21.3-102.1-12.4 M199.8,687.1c0,0-45.7-7.7-60.5-12.4S46.1,661,27.1,659.8s-39.5,0.6-60.7,7.7s-28,10-50.8,12.6
		s-41.4,7-57.2,7.4s-29.7,2-51,0.4s-32.7-2.3-49.3-1 M180.5,693.4c0,0-21.1-5.3-43-12c-21.9-6.7-75-15.5-112.1-16.4
		s-58.7,9.7-83.8,15.1s-64.2,11.8-81.2,12.2s-57.9-0.4-74.3-2.2s-33.6-0.8-33.6-0.8 M163.8,699.4c0,0-48.4-19.8-91.6-25.3
		s-61.7-8.5-104.9,5c-18.1,5.6-102.9,17.2-114.2,17.2c-11.2,0-58.2-2-70-3.2c-13-1.3-34.9-1.3-34.9-1.3 M150.4,704.6
		c0,0-35.4-15.3-61.8-20.3s-56.4-11.7-87.7-7.4c-31.3,4.4-43.1,11.2-80.9,15.9c-37.7,4.7-41.1,10.4-80.9,7.6s-72.3-6.4-94.3-3.6
		 M139,709.3c0,0-42.6-21.4-99.5-24c-56.9-2.6-63,2.3-89.4,8.5s-64.9,12-100.8,10.5c-36-1.5-74.6-2.4-105,1.5 M129.7,713
		c0,0-27-10.5-60.8-15.2c-33.8-4.8-76.9-5-104.4-0.1s-54,12.6-81.2,13.4s-42.6-5.1-75.1-1.7c-32.6,3.4-63.4,7.9-63.4,7.9
		 M115.1,717.2c0,0-17.6-4.5-43-7.5c-25.4-3-62.4-6.8-96.1-3.9s-69.2,13.8-82.7,14.3c-13.6,0.5-46.4-3.3-69.7-2
		c-30.5,1.7-77.2,15.5-77.2,15.5 M83.4,724.9c0,0-42.4-5.8-67.3-6c-25-0.2-70.4,1.4-92.4,6.4c-21.9,5.1-29.8,6.5-49.1,4.9
		s-42-2.5-67,2s-58.8,16.2-58.8,16.2 M52.7,735.4c0,0-13.5-3.5-30.6-2s-69,3-80.3,2.5c-11.3-0.5-39.6,7.3-69.6,4.7
		c-30-2.7-54.2-3.6-79.4,6.3c-25.3,9.9-44.1,13.2-44.1,13.2 M29.8,748.9c0,0-42.7,3.1-65,2.1c-22.3-1.1-59.5,0.2-76.9-0.8
		c-17.4-1-58.7-6.7-86.5,2.8s-39.1,13.5-52.9,17.1 M-1.6,766.6c0,0-30.7,0.6-56.8-3.3s-86.8-10.6-115-9s-81.3,23.4-81.3,23.4
		 M-50.1,784.5c0,0-53.2-10.9-73.7-16.3s-54.1-10.6-82.9-4.1c-34.9,8-55.7,22.2-55.7,22.2 M-30.9,778.3c0,0-25.5-3.2-59.5-10
		c-32.2-6.4-79.8-18.8-110.6-5.3 M-68.5,789.4c0,0-35.6-8.1-62.2-16.1s-50.1-10.4-76.2-5.2c-29.2,5.8-59,24.8-59,24.8 M-87.6,793.8
		c0,0-31-7.7-55.2-14c-24.2-6.3-40.6-11.2-67.8-5.2c-33.6,7.4-57.6,25.4-57.6,25.4 M-111.9,798.4c0,0-28.1-6.9-51.5-12.9
		c-23.4-6-61.5-10-107.2,22.2 M-134.5,804c0,0-49.4-17.8-79.2-13.1c-32.8,5.2-57.6,27.7-57.6,27.7 M-148.1,809.5
		c0,0-41.7-12.7-67.6-8.6c-30,4.8-56.9,28.2-56.9,28.2 M-159.8,815.6c0,0-30.4-6.1-56.1-3.5c-28.7,3-57.7,27.9-57.7,27.9
		 M-167.6,820c0,0-66.4-9.4-107.8,28.5 M-170.4,821.4c0,0-69.2-1.7-107.4,34.9 M-172.9,822.6c0,0-52.8-4.3-107.9,41.7 M-173.8,823
		c0,0-58.2-3.3-108.9,50.9 M-174.7,823.4c0,0-70.6,2.5-115.5,63 M-177.5,824.8c0,0-18.3,5.5-26.4,8.1c-8.2,2.5-52.4,14.9-79.5,45.2
		 M680.2,610.3c37,19.9,83.6,34.5,130.5,23.2c52.6-12.7,75.4-41.8,94.8-55.8s49.7-27.7,79-36.3c29.3-8.6,68.9-8.8,86.5-6.8
		c23.9,2.8,37.4,0.3,64,3.5c26.6,3.3,50.2,14.4,88.1,15.3c46.7,1.1,83.9-11.4,120.2-17.5c36.2-6.2,57.7,11.4,111.8-2.8
		c54.1-14.2,102.9-48.8,120.8-62.9c17.9-14.1,79.3-52.1,97.1-60.5c17.8-8.4,44.4-12.6,51.6-15.5c7.2-2.9,28.9-13.4,42.7-16.3
		c13.9-3,41-0.6,41-0.6 M1299.3,557.2c29-8.2,55.6-9.2,91.3-2.6c39.1,7.3,84.9-6,125.4-30c40.5-24,83.6-65.1,120.9-88.7
		c37.3-23.6,51.8-26.8,68-29.2c16.2-2.4,31.6-8.4,48.6-15.1c17-6.7,62.9-8.9,62.9-8.9 M1210.5,578.2c0,0-55.5,0.7-63.2-0.1
		s-59.2,7.1-75,12.6s-42.9,9.6-69.8,18.8c-26.9,9.1-51.4,17.7-85.9,21.6s-52.8,8.7-93,34.1c-40.2,25.4-68.2,47.2-92,61.5
		c-23.8,14.4-68.4,44.9-126.7,43c-38-1.2-89.7-36.9-157.2-44.1s-125.9-7.7-171.3,5.6c-37,10.8-52.6,30.3-111.4,52
		c-38.1,14.1-67.2,16.9-107.6,35.4C17.7,836.9-3,839.3-44.4,845.6c-41.4,6.3-68.8,10.7-104.8,39.6s-41,32.7-72.3,44
		s-41.8,17.2-69.2,39.9 M1200.8,578.2c0,0-46.8-14.4-70.7-23.6c-23.9-9.2-43.7-6.2-66.7,2.3c-23,8.6-47.5,19.7-69.8,34.1
		s-86.7,37.1-112.2,42.9 M1192,575.4c0,0-28.3-1.3-48-5.1s-59,4.6-80.2,12.7c-21.2,8.1-43,10.8-67.6,23.1
		c-24.7,12.3-53.7,19-66.7,20.7c-13,1.7-50.5,4.4-73.5,15.9s-58.5,26.9-87.6,47c-29.1,20.1-71.5,53.6-123.8,59.5
		c-52.4,6-126.1-34.8-163.8-42.1c-37.6-7.3-101.2-10.6-158.2-2c-57,8.6-66.3,15.8-109.2,39.5c-32.6,18-168.4,68.5-228,79.9
		c-59.6,11.5-86.7,6.1-125.1,32.6s-52.3,40.3-78.8,47.9s-40.8,10.6-76.3,41.3 M1166.4,567.2c24.9,8.5,50.6,8.6,50.6,8.6
		 M624.7,591.5c28.7,9.1,82.3,39.9,100.7,43.3c53.6,9.9,101.5,0.8,126.7-10.9c25.2-11.7,51.7-39.4,101-65.9
		c49.3-26.5,80.4-18.1,105.9-17.8s80.1,9.7,110.4,17.7c30.3,8,73.9,9,73.9,9 M1184.6,573.1c0,0-25.6-4.2-39.8-8.2s-38-5.7-74.2,6.5
		c-36.1,12.2-65.5,25.6-79.3,32.7c-13.7,7.1-49.7,18.4-70.2,23.7 M1156.3,563.9c0,0-39.4-12.4-69.2-4.9s-59.1,20.3-75.7,30
		c-16.6,9.7-47.2,25.1-93.6,39.1 M1127.4,553.7c0,0-27.3-4.8-45.2,0.5c-17.9,5.3-50.6,17.5-71.6,30.5c-21,13.1-37.9,22.4-58.2,29.3
		c-20.2,6.9-32.9,11.2-41.4,15 M566.2,580.3c0,0,50.3,10.6,88.4,34.9c38,24.3,72.2,31.8,95.5,31.4c23.3-0.4,74.2-7.3,105.8-19.7
		c31.6-12.4,62.3-38,85.3-54.1c23-16,42.5-28.2,67-29.7c24.6-1.5,78.7,7.1,78.7,7.1 M598.2,585.2c32,6.5,98.1,48.2,128.8,54.7
		c30.7,6.5,77.2-3.2,77.2-3.2 M496.4,579.3c0,0,57.1-0.9,85.9,10.1c32.1,12.2,68,31.8,100.3,47.1c32.4,15.3,89.4,15.4,112.8,12.3
		c23.4-3.2,44.8-9.4,72.5-15.6c27.6-6.2,30.5-7.6,60.1-18.3c29.6-10.6,54-27.8,83.3-41.6c29.3-13.8,55.6-17.6,55.6-17.6
		 M1068.6,555.1c0,0-34.6,1.5-61.3,11.9c-26.6,10.4-55.8,30.7-82.9,44.3c-27.1,13.5-29.8,14.7-51.5,20.7 M1070.9,554.4
		c0,0-32.6-2.6-64.8,4.3c-18.5,4-58.3,33.8-74.2,43.4c-15.9,9.6-39.7,24.1-59,30 M1072,554c0,0-37-7.4-69.1-1
		c-23.3,4.6-60.5,37.1-82.5,51.4c-21.9,14.3-36,22.3-63.4,31.4 M1075.7,552.9c0,0-44.9-10.7-76.5-5c-25.9,4.6-59.9,36.4-80.5,51.1
		c-20.6,14.7-39.7,24.3-60.8,31.7s-50.9,15.1-87.6,19.7 M2035.1,604.7c0,0-63.1,16.4-96.2,21.8s-71.2,9.2-102.5,2.8
		c-21.6-4.5-34.9-14.7-62.1-23.4c-27.2-8.7-31-5.9-65.8-18.8c-34.9-12.8-69.8-4.4-116,16.2c-46.2,20.5-94.2,56.8-118,68.2
		s-79.6,43.2-95.6,55.7c-16,12.5-39.4,25.6-97.4,38.9c-58.1,13.3-77.2,16.1-106.1,26.1c-29,10-41,14-72.7,14.6
		c-31.7,0.6-49.9,0.9-76.9,6.7c-27,5.8-50.1,3.2-83.5,11.6c-33.4,8.5-44,15.9-60.3,21c-16.3,5.1-43,20.1-61.5,34.7
		c-18.5,14.6-80.7,66.3-89.6,72.9c-8.9,6.6-53.1,50.6-66.6,69.2c-13.4,18.6-31.3,45-78.4,68.3c-47,23.4-73.2,17-97.9,14
		c-24.6-3-99.7-13.6-134.8-24.5c-35.2-10.9-72.2-26.6-113.6-35.6c-41.4-9-96.2,2.4-129.7,13.9s-73.9,29.6-89.1,44
		c-15.2,14.4-33.2,29.4-53,40.5c-19.7,11.1-48,19.5-57.6,21.4s-18.3,3.3-36.6,12.2c-18.4,8.9-32.4,12.7-41.7,14.6
		c-9.3,1.9-28,9.9-28,9.9 M1779.5,607.6c0,0-18.4-10.4-37.4-16.3c-19-5.9-44.2-23.7-80.8-26.7s-59,12.4-93.2,31.6
		c-34.2,19.1-112.2,73.5-148.5,90.2c-36.3,16.6-39.3,26-67.9,41.9s-54.5,23.4-94,31.7c-37.6,8-57.7,3.9-92,14.8
		c-34.3,10.9-50,11-68.8,12.2c-18.8,1.2-32.2-0.3-63.9,7.7c-38.7,9.7-66.5,6.1-95.6,15.7c-30.8,10.1-32,16-57.2,26.2
		s-44.6,22.8-62.3,39c-17.7,16.3-81.5,70.6-101.3,84.7c-19.7,14.1-35.1,35.7-52.5,53.1s-51.9,55.6-100,71.7s-79,2.3-102.6-0.9
		s-50.2-5-99.1-19c-49-13.9-114.4-51.1-179.9-40.9c-65.5,10.3-63.4,14.2-88.4,26.7c-25,12.4-47.6,19.4-69.7,39.3
		s-32.9,38.3-72.1,57.1c-15.7,7.5-56.9,13-89.9,30c-13.6,7-41.7,11.1-70,26.2 M1753.6,595.3c0,0-51.2-29.2-76.1-39.2
		s-57.3-9.7-96,12.4c-38.7,22.1-69.3,50.1-100.6,67.7c-31.2,17.7-57,37.5-74.7,45c-22.7,9.6-29.6,19.9-58.2,34.3s-66,28.3-105.2,33
		c-39.2,4.6-55.6-1.1-91.4,6.8c-35.8,7.9-68.3,9.5-90.4,10.7c-22.1,1.2-40,7.8-59.8,13.7c-19.9,5.9-50.4,8.1-65.4,10.6
		c-15.1,2.5-32.8,10.9-72.9,38.6c-40,27.6-81.5,74.3-100.2,89.3s-75.2,58.2-96.4,78.7s-68,61.7-105.5,74.9
		c-37.5,13.2-100-2.3-161.7-13.5c-61.8-11.2-128.6-53.2-195.6-51.6c-58,1.3-83.1,11.6-114.3,29.6c-31.1,18-50.9,24.3-71.3,46.4
		c-18.5,20.1-39.7,41.4-57.4,53.1c-17.7,11.8-36,15.1-50.4,18.6c-14.5,3.5-35,16-60.8,23.7s-47,15.9-78.3,28.3 M-271.6,1205.2
		c28.5-1.3,52.3-9.1,75-19c19.3-8.4,29.2-7.1,56.4-18.5c52.2-22,70.2-20.4,95.6-37.4c24.2-16.2,38.7-43.8,72-71.6s56-34.1,75.2-45.9
		c19.2-11.8,28.2-17.7,81.1-20c52.9-2.3,96.5,12.9,140.7,25.7c44.2,12.8,142.5,49.9,185.9,48.7c58.7-1.6,82.2-24.8,116-51.7
		s97.4-77.8,119.9-91.1c22.6-13.3,58.4-58.2,105.7-103.3c47.4-45.1,77.4-53.9,111.4-58.4s43.3-10.9,94.3-18
		c51-7.1,105.6-5,160.6-9.4s126.4-28.8,150.1-45.3c23.6-16.6,24.9-12.8,50.2-27.1s75.5-44.8,114.6-73c39.1-28.2,65.5-39.7,65.5-39.7
		 M1803.7,617.5c27.6,13,73.4,13.7,110.1,9.7c36.8-4,121.9-22.9,121.9-22.9 M1800.9,616.2c15.7,4.9,45.8,12.8,100.2,8.9
		c54.3-3.9,135.6-21.7,135.6-21.7 M1799,615.4c63,22.6,234-16.1,234-16.1 M1796.8,614.4c27,4.4,54.4,4.5,88.7,2.2
		c34.3-2.3,138.3-23.3,138.3-23.3 M1793,612.8c33.3,6.9,95.8-1.9,109.1-5.5c15.2-4.2,45.7-10.8,58-13.6c12.3-2.7,53-8.4,53-8.4
		 M1787.6,610.6c0,0,34.6-1.2,54.8-2.1c20.2-0.9,94.7-21.1,113.4-25.5c18.7-4.4,48.9-9.1,48.9-9.1 M1780,607.8
		c0,0,24.3-3.4,44.5-4.3c29.2-1.3,76.1-13,95.8-21.2c19.7-8.3,76.4-21.8,76.4-21.8 M1772.3,603.8c28-5.6,54.5-5.2,86.4-11.4
		c31.9-6.2,43.4-13.2,61.5-20.9c18.1-7.6,67.6-23.4,67.6-23.4 M1764.2,599.9c0,0,47.2-8.2,83.5-15.8s53.1-16.4,76.7-26.8
		c23.6-10.5,55.4-21.1,55.4-21.1 M1755.2,596c0,0,13.6-3.2,48.8-11.3c35.2-8.1,70.6-23.3,97.6-35.1s69.1-24.2,69.1-24.2
		 M1747.9,592.1c10,0.1,29.2-8.8,51.1-15.8c22-7.1,57.7-23.2,76.7-33s36.9-16.2,51.1-18.4c14.2-2.2,35.5-10.8,35.5-10.8
		 M1953.7,502.2c0,0-40.3,7.3-67,17.7c-26.6,10.4-44.3,25.9-81.9,43.3c-37.6,17.3-49.6,24.5-62.5,25.9 M1945,487.1
		c0,0-40.6,8.1-66.6,20.4s-54,32-73.9,43.6c-19.9,11.5-61.5,35-67,35.4 M1937.7,472.4c0,0-32.8,7.5-67,25.9
		c-34.1,18.5-55.6,36.8-72.5,47.2c-17,10.4-58.1,37.1-66.4,37 M1929.4,459.7c0,0-81.3,39.6-90.7,47.4c-9.3,7.7-69.7,55-110.5,72.8
		 M1723.2,576.9c8.8-3.6,25.7-11.7,41.4-22.2c15.6-10.5,53.9-41.9,65.4-50c11.5-8,35-18.9,46.4-25.4c11.4-6.5,45.1-29.9,45.1-29.9
		 M1716.7,572.8c0,0,24.3-9.6,39.8-20.6c15.5-11,50.9-42,66.9-52.8c16.1-10.9,24.1-12.6,45.2-25.2c21.1-12.6,44.6-35,44.6-35
		 M1707.9,567.3c0,0,23.5-8.8,42.3-21.6c18.8-12.8,49.6-38.9,66-50.4c16.4-11.4,25.9-14.3,43-26.1c17.1-11.9,45.8-39.2,45.8-39.2
		 M1696.2,560.8c0,0,50.3-23.4,72.9-41.1c22.6-17.7,54.5-39.1,76.1-53.8c21.6-14.7,51.2-42.6,51.2-42.6 M1681.6,553.6
		c120.3-59.8,206.6-134.5,206.6-134.5 M1662.2,546.5c22.1-10.6,58.4-30.5,73.9-39.7c15.5-9.2,34.4-16.8,53.5-27.9
		c19.1-11.1,89.7-62.6,89.7-62.6 M1611.4,546.5c3.8-3.7,18.6-9.5,43.8-18.8s55.5-26.9,73.5-35.8s32-13,54.3-22.6
		c22.3-9.6,40-24.1,50.4-31.4c10.4-7.3,37-23.9,37-23.9 M1862.8,411.8c0,0-19.5,10-38.5,23c-19,13.1-43.9,24.6-64.7,31.1
		c-20.8,6.5-96.5,32.3-128.5,47.6c-33.7,16.1-71,54.3-71,54.3 M1854.3,410.7c0,0-26,12-39.7,21.1c-13.7,9.1-30.4,15.6-47.2,20.2
		s-68.1,12.8-103.8,25.9c-35.7,13.1-75.5,41.9-102.8,71.2c-15.8,17-48,41.5-48,41.5 M1845.9,408c0,0-24,8-39.7,17.1
		c-15.7,9-30.5,15.1-58.6,19.2c-28.2,4.1-60,3.3-98.2,23.3c-38.3,20-45.2,27.4-67.9,48.6c-22.8,21.2-75.3,71.6-103.5,84.7
		 M1838.1,404.6c0,0-21.9,6.3-41.1,14.2c-19.3,7.9-40.6,14.3-73.9,15.9c-33.2,1.6-60.3,9.1-92.7,30.7
		c-32.4,21.6-60.9,56.1-99.2,86.3c-38.3,30.2-80.6,48.7-80.6,48.7 M1830,400.1c0,0-62.4,16.9-83.9,20.8c-21.5,4-54,3.4-81.1,13.9
		c-27.1,10.5-68.3,49.2-90.8,69.6s-34.6,32.8-76.9,58c-42.2,25.2-62,28.7-85.2,29.6 M1356,571c76,8.2,86.5,3,133.3-18.6
		c44.6-20.5,67.4-42.2,101.8-73c33.7-30.1,65.3-51.7,89-59c23.7-7.2,23.2-3.9,45.2-8c21.9-4.1,31.8-8.5,51.5-12.7
		c19.6-4.3,46.1-6.9,46.1-6.9 M825.1,657.5c0,0-11.7,2.6-41.4,15.5c-29.8,12.8-62.2,40.9-98.9,52.7c-36.7,11.9-92.6-3-127.1-15.5
		c-34.4-12.6-84.5-37.3-150-30.2c-65.5,7.1-135.5,14.5-169.8,34.8s-57,23.9-100.7,45.3C93.3,781.6,6.8,807.4-42.5,815.2
		s-79.8,11.1-117.9,36.4s-49,30.6-77.3,40.4s-51,25.4-60.4,34.4 M834.2,653.3C737,678,719.7,706.8,678.5,711.1
		c-70,7.4-161.2-51.4-208.5-52.2c-59.7-1.1-179.9,24.2-209.4,34.7c-62.3,22.2-86.4,34-147.5,63.8c-39.8,19.4-136.6,42.4-198.6,54.8
		c-53.8,10.8-87,26.7-104.1,39.1s-45,24-71.6,36c-26.6,12.1-38.4,23.5-38.4,23.5 M835.9,652.4c0,0-35.7,7.9-51.1,13.1
		s-66.9,27.1-107.9,29.5c-61.5,3.7-140.2-54.4-202.2-57.1c-53.6-2.3-43.7,11.6-119.1,22.1c-54.9,7.7-92.5,28.4-137.7,40.8
		s-60.2,20.8-84.2,35c-36.6,21.6-72.9,29.8-106.2,39.9s-81.5,24.6-110.4,27.1s-64.9,11.2-96.3,28.2s-60.3,34.8-79.3,44.3
		s-27.4,14.9-39.2,24.8 M848.5,646.4c0,0-31.8,7.3-48.7,14.8 M867,638.1c0,0-31.9,5.1-53.8,13.4c-21.9,8.3-57.6,24.4-113,28.5
		c-55.4,4.1-83.2-10.5-149.7-39.6s-106.5-21.6-142.6-6.9s-66.1,18.6-103.9,32.3c-37.8,13.6-88.8,28.8-104.3,32.4
		c-15.4,3.6-42.9,14.1-61.8,25.8c-18.8,11.7-42.3,22.9-78.7,34.4S-49.6,791.9-79,795.3c-29.4,3.4-56.2,8.8-79.7,19.7 M819.4,644.9
		c0,0-55.2,26.5-103.5,27.7S647,669.7,562.6,629c-42.3-20.4-111.5-29.8-146.1-13.9c-34.6,15.9-52.9,25.5-88,36.3
		c-35.1,10.8-68.4,27.8-110,36.4c-41.6,8.6-64.7,21.3-81.5,30.6s-71.5,24.1-99.3,36C10,766.3-4,774.8-42.2,782.2 M804.1,647.8
		c0,0-60.1,21.7-112,18.9c-51.9-2.8-99.1-51.1-161.2-62.2c-48-8.6-82.7-19.5-135.1,11.4c-46.1,27.2-138.4,57.8-154.3,63.2
		c-15.9,5.3-41.2,6-94.5,29.6c-44.5,19.8-55,13.7-88.8,28.2c-24.7,10.6-39.6,19-39.6,19 M789.2,649.6c0,0-64,17-103.5,6.4
		c-60-16.1-99.8-52.4-159.1-63.1s-84.8-6.5-127.1,13.6s-67.9,32.9-67.9,32.9 M471.8,582.1c100.3-0.8,139.5,28.7,193.9,55.9
		c54.4,27.2,103.2,12.4,103.2,12.4 M1206,578.2c0,0-42.9,8-65.9,9.8c-23.1,1.9-51.1,7.9-73.6,15.6c-22.4,7.7-38.4,5.2-82.1,19.1
		s-87.5,11.9-123.5,26.9c-36,15.1-69.2,52.3-91,66.9c-21.9,14.6-53.6,30.2-83.5,47.1c-29.9,17-74.2,34.4-125.9,20
		c-48.9-13.6-73.2-36.2-184.2-42.8c-92.9-5.5-128.9,23.4-163,39.9S156,803,133.7,808c-22.3,5-44,11.6-78,25.2
		c-33.9,13.6-51.9,23.4-97.9,30.8s-72.7,15.1-108.1,45.6s-45.2,37.1-75.3,51.5s-57.2,35.2-57.2,35.2 M1209,578.2
		c0,0-40.6,12.7-67.7,16.7c-27.1,3.9-52,16.7-99.3,23.3c-47.3,6.6-149.3,30.2-181.6,41.8c-32.3,11.6-43.5,30.3-76,56.5
		s-76.7,47.4-113.3,68.9c-36.6,21.6-77.8,35.7-159.9,6.2c-69.6-25-159.1-39.9-215.9-24.3c-56.7,15.6-77.4,35.2-125.6,46.1
		s-113.9,31-140.5,44.9c-26.5,13.9-76.6,24.5-102.6,31.6s-49.8,18-80.3,46.4s-72.7,62.5-121.7,87 M1346,567.7c0,0-44-14.8-90.1,0.1
		c-46.1,14.9-97.7,33-109.6,38.1c-11.8,5.1-22.7,11.1-66.3,19.4c-43.6,8.3-49.4,7.5-76.7,14.9c-27.4,7.4-63.2,13.8-78.7,20.6
		s-46.6,12.8-69.9,26.3c-23.3,13.5-42.2,21.8-77.1,53.4c-34.9,31.6-51.1,37.4-85,68.8c-33.9,31.4-72.3,53.4-142.1,42.7
		c-64.7-9.9-117-38.5-181.1-42.8s-93.6,7-113.9,14.1c-20.3,7.2-39.7,13.4-55.7,13.9c-15.9,0.5-61.7,12.3-79.7,19.7
		c-18,7.4-33,12.2-53.5,16.7s-32.3,7.1-57,19.4c-24.7,12.3-57,31.4-82.5,39s-53.8,26.1-74.1,49c-20.2,22.8-81.8,68-122.1,82.3
		 M-268.3,1196.9c0,0,19.3-5.1,33.7-7.4c14.4-2.4,35.6-11.6,62.7-18.9c27.1-7.4,43.8-16.6,85.7-32c41.9-15.4,57.7-36.3,80.3-61.7
		s81.9-80,134.2-90.8c68.6-14.2,160.9-2,239.5,27.5c82,30.9,123.8,48.5,165,41.1s100.2-50.4,129.9-76.3c29.6-25.9,56.8-44.6,81.1-63
		c24.4-18.4,44.8-38.5,61.8-59.4s74.1-83,96.1-96.9c22-13.9,91.1-29.6,149.3-31.7c58.7-2.2,108.4-9.1,150.9-9.7
		c42.5-0.6,76.5-9.6,110.8-20.9s39.9-17.5,82.3-33.4s59.7-29.8,82.9-44.8s92.9-56.2,92.9-56.2 M-265.7,1189.2
		c0,0,44.7-14.6,55.9-19.1c11.2-4.6,18.4-7.4,45.9-14.1c27.5-6.7,85.8-31.6,113.5-52.9s64.7-67.6,90-88.3s87.8-52.3,158-51
		c70.2,1.3,140.4,20.6,180.5,35.5s107.3,51,153.4,43.9c46.1-7.1,117.2-56.1,128.7-68.9c15.9-17.8,63.3-57.9,83.1-73.2
		c19.8-15.3,47.5-41.4,65.9-65.7s50.9-65.8,87.4-92.6c36.5-26.8,84.8-28,119.5-29.7c34.7-1.7,92.4-1.1,126.4-7.5
		c35.3-6.6,46.6-4.9,73.5-6.6s47.3-7,95.7-22.8c48.5-15.9,81.3-22.3,104.9-31.4c33.3-12.8,119.5-65.1,119.5-65.1 M1492.1,598.8
		c0,0-13,6.5-30.4,10.3c-17.4,3.8-35.9,4.8-47.4,9.2c-13,5-46.9,5.2-63.6,10.6c-14.2,4.6-76.1,15.8-85.7,18.1s-26.4,12.8-53,15.5
		c-26.6,2.7-35.7-2.2-88.5,11c-52.9,13.2-98.6,9.3-124.2,7.3c-25.5-2-75.4,6.7-112.1,35.4c-36.8,28.7-78.2,71.6-98.6,97.5
		c-20.4,25.9-54.4,65.5-76.9,85.1c-22.5,19.7-54.7,67.4-97.3,92s-99.7,29.4-166.2-5.7c-66.4-35.1-189.9-62-278.9-48.6
		c-89.1,13.4-134.1,37.3-174.6,84.5c-40.5,47.2-61.6,52.7-85,73.3c-23.4,20.6-83.6,35.9-99.8,43.2c-16.2,7.3-43.9,22.2-68.6,31.6
		 M1490.8,599.1c0,0-28.5,8-44.1,8.4c-15.6,0.4-24.8-0.7-43.3,3.4c-18.4,4.1-40.9-2.4-60,0.7c-19,3.1-54.9,9.6-81.9,19.8
		s-41.5,13.8-74.9,16.3c-33.4,2.5-48.8,7.1-69.2,13.4c-20.4,6.3-56.1,15.1-97.6,10.6c-41.5-4.5-74,0-120.8,25.9
		c-46.8,25.9-100.6,81.2-128.6,117.1c-27.9,35.9-60.7,73.4-78.3,91.8c-17.6,18.5-61.6,83-147.8,84c-51.8,0.6-143.2-54.2-223-67.4
		C241.7,910,132,916.3,53.8,951.8c-58.2,26.4-73.9,74.3-111.1,95.3c-37.1,21-36.1,31.5-66.7,45.7s-47.5,26.3-68.2,33
		c-13.9,4.5-26.7,14.7-65.4,27.8 M1468.3,601.3c0,0-16.9,2.5-55.7-0.1c-38.7-2.6-53.1-8-93.6-2.4c-40.5,5.7-63,19-87.7,26.8
		c-24.6,7.8-45.4,5.4-76.8,13c-31.4,7.6-37,14.4-73.3,19.6c-41.5,6-82.3-0.7-131.3,11.6c-43,10.8-67.1,33.1-87.7,45.2
		c-20.6,12.1-57.9,40.2-88.3,75.2c-30.4,35-100.5,144.9-168,167c-65.8,21.5-127-1.8-213.4-37.2c-75.1-30.8-186.1-27.8-273.2-6.3
		C37.9,934,9.3,954.7-21,991.6c-22.2,27.1-56.3,38.9-96,71.1c-37.5,30.4-86.3,52.7-142.3,74.1 M1430.1,596.9c0,0-25.5-1.2-51.5-6.8
		c-26-5.6-58.2-12.1-105.7,4.7s-74.8,24.5-91.7,27.1c-16.9,2.6-50.7,13-69.1,20.1c-18.5,7.1-57.2,10.5-90.5,13.7
		c-33.2,3.2-68.1,7.5-100,20.5c-32,13-84.8,40-144.4,96.3c-59.6,56.3-86,124.7-154.8,155.2c-61.4,27.2-158.1-6.5-220.4-29.2
		c-62.3-22.6-150.1-30.4-283.1,0.6c-121,28.2-136,75.2-183.3,102.3c-51.8,29.7-73.1,54.3-109.4,72.8c-36.2,18.5-43.5,25.5-88.4,43.8
		 M1405,589.5c0,0-35.5-7.7-49.2-11.8c-13.7-4.2-54.7-5.1-94.4,6.8s-113.5,38.9-158,51c-38.2,10.4-92.8,13.5-160.6,31.1
		c-67.9,17.6-123.4,55.3-164.6,91.8c-41.2,36.5-65.9,70.5-101.6,111.3s-94.9,48-182.5,30.4s-126.6-65.7-307.6-29.7
		C57.8,895.9,19.2,920.2-27.3,951.7c-46.6,31.5-75.5,44.8-111.6,76s-90.2,55.1-125.6,70.8 M1387.6,582.8c0,0-63.3-23.1-107.2-12.3
		s-102.2,30-127.7,40.3c-25.5,10.3-43.5,16.2-83,23.1c-39.4,6.9-48.9,9.6-65.9,14.8s-43.2,8.2-66.3,14.6
		c-23.1,6.4-83,27.6-128.1,59.1c-45.1,31.5-108.2,98-133.7,125.1c-25.6,27.1-88.7,48.8-183.5,21.3c-94.8-27.5-105.6-31.6-151.7-35.4
		s-84.3,11.5-118.1,17c-33.8,5.6-60.7,7.2-99.8,21.6c-39.1,14.3-60.3,13.1-89.9,26.7s-63.3,37.8-87.9,47.5
		c-24.6,9.7-58.7,33.7-91.9,61.9s-82.9,57.1-120,70.9 M452,1188.9c86.6-9.8,158.1-91.9,158.1-91.9 M481.3,1182.9
		c13-2.3,31.8-3.8,59.7-21.4c27.9-17.6,54.2-43,66.1-55.6c11.9-12.6,45.5-35.6,45.5-35.6 M547.8,1157c33.1-16.2,55.5-42.4,62.7-49.8
		c7.2-7.3,49.1-40.7,49.1-40.7 M2006.1,629c-51.6,41.6-106.4,77.4-123.1,82.5c-16.7,5.2-38.6,10.5-57.4,22.1s-35.8,18.8-50.4,21.9
		c-17.2,3.7-31.2,6.8-56.2,19.2c-25,12.4-39.7,19.7-69.7,27s-53.1,15.1-91.7,36.4c-38.6,21.3-59.2,21.1-97.6,25.9
		c-38.4,4.8-89.9,22.2-124.4,35.7c-34.4,13.6-61.8,28.8-125.2,19.9c-63.4-8.9-128.4-38.3-178.2-30.8
		c-113.6,17.1-199.8,66.7-249.3,104.5c-40.6,31-77.5,45.7-100,59.3c-22.5,13.7-34.9,25.6-52.9,42.3c-18,16.7-51.4,42.4-51.4,42.4
		 M668.8,1061.9c32.5-22.6,75.8-51.6,106.6-80.1c29.6-27.4,59.9-49,115-68.3c55.1-19.3,96.7-37.8,162.3-39.7
		c49-1.4,100.2,18.7,154.7,27.9c53,8.9,90.1-4.6,132.7-24.7c42.6-20,89-35,126.8-38.2c37.7-3.2,65.7-14.1,96.7-31.3
		s52.2-25,79.4-33.1c27.2-8.1,32.2-11.5,55.4-21.3s38.1-12.2,64.6-15.7s34.9-8,51.6-15.1c16.7-7.1,33.4-12.3,51.4-16.2
		s30.1-6.9,56-21.8c25.9-14.9,99.9-68.7,99.9-68.7 M2024.4,613.7c0,0-72.3,43.4-92.2,54.5c-19.9,11.1-38.6,21.3-72.3,26.9
		c-33.8,5.6-51.4,11.3-67.5,17.5s-31.9,4-50.2,2.5c-18.3-1.5-45.8,3.6-91.1,23.6c-45.2,19.9-84.7,40.7-100.4,49.7s-43.5,21-78.4,25
		c-34.9,4-64.7,12.3-109.9,33.7c-45.3,21.4-103.4,43.7-151.9,37.6c-48.6-6.2-56.8-15.4-119.7-18.8s-74.4-1.8-130.1,15.1
		c-55.7,16.9-98.9,25.8-155.5,60.1c-34.9,21.2-64.1,64.5-139.1,122.4 M2025.7,612.6c0,0-81.6,42.6-118.9,56.9
		c-37.3,14.3-68.6,15.9-90.9,16.4c-22.3,0.5-29.9,7.6-60.5,4.9c-30.5-2.7-56.4-7.6-103.8,14.3c-47.4,21.9-90.2,45.8-107.6,57.1
		c-17.4,11.3-38.7,22.4-80.8,28.9s-70.9,17.5-108.5,39.4c-37.7,21.8-99.4,35.3-134.1,35.8c-34.6,0.5-124-14.4-176.9-9.8
		c-52.8,4.6-73.3,19.7-110.8,26.9c-37.6,7.1-48.3,8.1-79.1,22.2c-30.8,14.1-44.4,18.7-75,45.1c-39.3,33.8-112.7,112.6-112.7,112.6
		 M2028.5,610.2c0,0-46.5,23.1-119.7,46.4c-59,18.8-124.2,11.8-145.1,10.5c-20.9-1.3-63.1-12-112.4,7.8s-87.2,44.3-126,67.5
		c-38.8,23.2-64.2,20.4-115.2,41.4c-51,20.9-48.8,26.8-99.6,45.4c-50.8,18.7-88,22.4-118.2,21.2c-30.2-1.3-114.8-5.1-150-0.6
		c-35.2,4.4-66.4,16.1-100.6,24.4s-41.6,2.6-76.7,16.4c-35.2,13.7-72.8,39.6-92.1,54.8c-39.5,31.2-109.1,119-109.1,119
		 M2030.6,608.4c0,0-40.8,18.4-69.7,25.5c-28.9,7.1-55.7,12.4-80,18.3s-91.5-1.4-133.6-8.4c-42.1-7-78.3-5.3-134.5,20.3
		c-56.2,25.6-85.4,50.2-124.7,68.3c-39.3,18.1-67.3,21.5-115.4,49.6s-72.3,34.7-113.7,42.9c-41.4,8.2-72.6,16.5-134.4,15.8
		c-61.8-0.7-70.2-2.8-125.2,10.9s-81.8,15.2-107.8,20.9c-31.2,6.8-63,25.4-102.1,52c-39.1,26.7-66.4,56.1-86.9,83.8
		c-20.5,27.8-51.9,62.9-51.9,62.9 M2030.6,608.4c0,0-63.8,25.2-104.8,28.7s-64.1,11.4-128.7-2.1c-54.5-11.4-89.4-20.6-135.5-13.5
		c-46.1,7.1-131.9,60.3-173.2,83.8c-41.4,23.5-87.4,41.7-134.6,68.9c-47.2,27.1-177.5,52.4-217.3,56s-52.3-1.5-82.7,2.5
		s-78.4,14.1-105.4,18.4c-27,4.3-63.9,6.1-107.2,31.2c-43.3,25.1-43.4,29.3-74.3,49.8c-30.3,20-59.4,55.5-71.2,73.3
		c-11.8,17.8-41.2,54.2-60.3,74.2 M2033.1,606.4c0,0-78.2,24.3-99.7,26.7c-21.5,2.5-55.7,4.7-92.8,1.2
		c-22.2-2.1-48.1-15.4-87.8-23.2c-40-7.9-49.6-14.9-91.7-9.9c-41.2,4.9-123.5,53.1-163.8,76.7c-40.2,23.6-84.3,43.6-102.6,57.7
		c-18.2,14.1-65.6,33.3-95.3,41.4c-29.8,8.1-86.7,18.4-114.2,29.9c-27.5,11.5-60.8,14.4-101.5,14.5s-127.2,14.8-156.7,21.1
		c-29.5,6.4-63.3,13.1-104.8,44.1c-41.4,31-71.1,45.6-125.9,107.9c-54.8,62.2-60.9,88.8-128.2,118.5c-41.5,18.3-80.9,5.4-113.6,2.9
		s-116.4-19.3-182.5-39.1c-66.1-19.9-111.1-14.2-175.4,2.5c-64.3,16.7-121.8,63.9-121.8,63.9 M589.6,1113.5c0,0-35.3,20.9-65.6,22.2
		c-30.3,1.4-40-4.9-71-4.5s-84.9-6.7-125.7-16.2s-123.2-39.7-205.1-26.1c-92,15.2-147.2,54.4-147.2,54.4 M547.6,1142.2
		c0,0-28.1,5.8-53.3,3.7c-25.2-2.1-56.1,1.3-82.5-1.3c-26.4-2.6-43.5,2.3-93.2-11.4c-49.7-13.7-155-33.8-203.5-30.3
		c-48.5,3.5-125,33.3-143.8,41.9c-18.8,8.7-64.2,29.4-90.6,39.5c-26.3,10.1-99.8,21.6-120.7,23.3s-34.1,4.2-34.1,4.2 M-179.2,1198.7
		c18.3-4.1,44.1-12.8,52.7-16.8s19.4-9.2,27.5-10.8s42.4-13.7,42.4-13.7 M-83.7,1169.5c0,0-26.4,7.3-32.6,10.1
		c-6.2,2.8-19.5,9.1-32,12.8 M522.7,1156.2c0,0-17.1,4.1-47.5,1.8c-30.5-2.3-43.3,2.7-100.8,2c-48.4-0.6-136.8-32.6-228.4-41.8
		c-57.2-5.8-107.9,12.7-127.7,19s-52.5,10-98.6,30.9 M495.9,1169.6c0,0-25.6,0.1-46.3,1.7c-20.7,1.6-50.5,8.9-97.3,2.3
		s-132.7-32.5-190.8-39.3s-92.1-1.1-138.4,13.4c-32.3,10.1-67,13.3-96.3,23.7s-63.8,21.8-83.7,26.3s-60.5,10.9-75.4,11.9
		c-14.9,1-39.2,4.6-45.8,5.9c-6.6,1.2-53.4,7-63.7,6.3 M474.8,1179.5c0,0-16.2,1.2-30.1,4.1c-13.8,2.9-38.2,13.4-77.2,6.8
		c-39-6.6-138.9-30.2-174.5-38.4c-35.6-8.2-101.3-11-156.5,1.7s-106.5,23.2-132.9,30s-78.9,24.6-122.7,28.6
		c-46.8,4.2-101.1,14.4-129.8,14.6 M434.2,1195.4c0,0-29.9,10.8-54.2,9.5c-24.2-1.2-170.4-35.7-208.2-44.8s-118.6-2.3-173.2,9.8
		c-54.6,12.1-108.9,20.8-140,29.8s-77.2,20.6-112.8,21.7s-64.6,9.3-102.9,10.4 M401.6,1209.2c0,0-16.4,3.9-47.5,2.1
		c-55.5-3.2-132.7-30.6-180.6-37s-102.4-9.2-167.2,2.4c-64.8,11.6-118.9,21.3-134.9,26.3s-49.1,8.5-96.5,19.6
		s-138.5,17.5-138.5,17.5 M1361.5,225.7c0,0-27.4,6.6-59.2,42.7c-35.8,40.7-43.9,49.3-66.3,65.9c-22.4,16.6-40.7,30.2-66,52.3
		 M1642.6,179.7c0,0-25.1,13.8-60.5,22.6c-35.5,8.8-60,7.3-79.1,6.5c-19.1-0.8-38,0.5-48.9-0.4c-10.9-0.8-34.2-1.2-81,13.2
		s-61.6,44.1-94.5,77.9c-32.9,33.9-48.1,43-63.8,54.3s-32.3,22.7-44.9,32.7"/>
</g>
</svg>
